<svg xmlns="http://www.w3.org/2000/svg" width="1100" height="480" viewBox="0 0 1100 480" style="clip-rule:evenodd;fill-rule:evenodd;image-rendering:optimizeQuality;shape-rendering:geometricPrecision;text-rendering:geometricPrecision;version:1"><defs><style type="text/css">  
    .fil0 {fill:#FEFEFE}
    .fil2 {fill:black}
    .fil3 {fill:#E0001E}
    .fil1 {fill:black;fill-rule:nonzero}
   </style></defs><path class="fil0" d="M162 359l3 1 2 0-170 130 551-159 96 66 26-45 175-62-18 36 23 22 41 0 33 0 81 0 5 0c31-3 60-12 77-39 11-19 13-38 8-58-6-19-19-35-46-43l30-69-94 0 0-62-203 0 43-96-156 96-522 1-6 60c-49 16-84 47-85 109 1 68 54 100 106 112z"/><path class="fil1" d="M205 139l9 0 0-6 1 0c14 0 18-10 18-17 0-6-4-17-18-17l-1 0 0-5-9 0 0 5-1 0c-15 0-18 11-18 17 0 7 3 17 18 17l1 0 0 6zm1-14l-1 0c-8 0-10-5-10-9 0-9 8-9 10-9l1 0 0 18zm7 0l0-18 1 0c1 0 9 0 9 9 0 7-3 9-9 9l-1 0zm39-9l-8-20-11 0 14 30c-1 2-2 4-5 4-1 0-3-1-4-1l0 8c2 1 4 1 6 1 4 0 8-1 11-9l12-33-9 0-6 20zm27-12l0 33 9 0 0-33 11 0 0-8-31 0 0 8 11 0zm33 0l20 0 0-8-29 0 0 41 18 0c9 0 14-4 14-12 0-13-11-14-14-14l-9 0 0-7zm0 15l7 0c3 0 7 1 7 6 0 3-3 4-7 4l-7 0 0-10zm46 19c13 0 19-9 19-21 0-13-6-22-19-22-14 0-18 12-18 22 0 9 4 21 18 21zm0-8c-4 0-9-3-9-13 0-10 3-14 9-14 9 0 10 10 10 14 0 3-1 13-10 13zm22 7c16 3 17-11 17-19l0-14 11 0 0 33 8 0 0-41-27 0 0 20c0 7-1 14-9 13l0 8zm53-41l-8 0 0 41 18 0c8 0 13-4 13-13 0-6-3-13-13-13l-10 0 0-15zm0 23l8 0c3 0 5 1 5 5 0 4-2 5-5 5l-8 0 0-10zm38 0l13 0 0 18 9 0 0-41-9 0 0 15-13 0 0-15-9 0 0 41 9 0 0-18zm39-23l-9 0 0 41 18 0c8 0 13-4 13-13 0-6-2-13-13-13l-9 0 0-15zm0 23l7 0c3 0 6 1 6 5 0 4-2 5-6 5l-7 0 0-10zm25-23l0 41 9 0 0-41-9 0zm26 27l0-27-9 0 0 41 9 0 14-27 0 27 9 0 0-41-9 0-14 27zm-4-37c1 7 8 8 11 8 2 0 10 0 10-8l-6 0c0 2-1 4-4 4-3 0-5-2-5-4l-6 0z"/><path class="fil1" d="M808 113l0 0 0-17-10 0 0 41 10 0 0-20 0 0 15 20 12 0-18-22 17-19-11 0-15 17zm27 24c18 3 19-11 20-19l0-14 12 0 0 33 10 0 0-41-31 0-1 20c0 7 0 14-10 13l0 8zm68-21l-9-20-12 0 15 30c0 2-1 4-5 4-2 0-3-1-4-1l0 8c2 1 4 1 6 1 5 0 10-1 13-9l14-33-11 0-7 20zm32-12l22 0 0-8-32 0 0 41 20 0c10 0 16-4 16-12 0-13-13-14-16-14l-10 0 0-7zm0 15l8 0c2 0 7 1 7 6 0 3-3 4-7 4l-8 0 0-10z"/><path class="fil2" d="M184 338l16-41c-20-1-43-6-52-20-11-15-4-41 7-54 13-15 36-15 58-16l19-41c-60-3-127 15-135 83-5 51 33 84 87 89zm134-131l63 0-60-41-68 0-19 41 37 0-59 128 45 0 61-128zm27-41l239 0 211-133-62 133 211 0-253 86-55 118-90-63-513 171 420-238-108-74zm131 40l113 0 110-65-32 65 58 0-67 19-36 79-65-43-173 64 144-83-52-36zm204 128l31-64 281-105-81 170-52 0 33-81-212 80zm310-32l23-46c19 0 35 3 27 26-10 21-26 20-50 20zm7 33l-65 0 80-169 43 0-28 59c12 1 31 5 41 13 12 11 15 27 12 42-7 37-46 55-83 55z"/><path class="fil3" d="M173 326l16-40c-20-1-43-6-52-20-11-16-4-41 7-54 12-15 36-15 58-16l19-41c-60-4-128 15-135 82-6 52 33 85 87 89zm134-130l63 0-60-41-69 0-18 41 36 0-59 127 45 1 62-128zm27-42l239 0 211-132-62 132 211 0-253 87-54 113-86-60-512 178 414-244-108-74zm131 40l112 1 111-65-32 65 58 0-67 19-37 79-64-43-174 64 145-83-52-37zm204 129l30-64 282-105-81 169-52 0 33-81-212 81zm309-32l23-47c20 1 36 4 28 27-10 21-26 20-51 20zm8 32l-65 0 80-169 43 0-28 60c12 1 30 4 40 13 12 10 16 27 13 42-7 36-47 54-83 54z"/></svg>