<?xml version="1.0" standalone="no"?>
<!DOCTYPE svg PUBLIC "-//W3C//DTD SVG 20010904//EN"
 "http://www.w3.org/TR/2001/REC-SVG-20010904/DTD/svg10.dtd">
<svg version="1.0" xmlns="http://www.w3.org/2000/svg"
 width="410.000000pt" height="410.000000pt" viewBox="0 0 410.000000 410.000000"
 preserveAspectRatio="xMidYMid meet">
<metadata>
Created by potrace 1.11, written by Peter Selinger 2001-2013
</metadata>
<g transform="translate(0.000000,410.000000) scale(0.100000,-0.100000)"
fill="#000000" stroke="none">
<path d="M2785 3725 l-280 -174 -406 -1 c-223 0 -663 -3 -977 -7 l-570 -6 -7
-86 c-9 -130 -6 -125 -89 -164 -95 -45 -158 -103 -196 -181 -81 -165 -45 -379
82 -490 57 -50 147 -98 220 -117 27 -7 48 -16 48 -19 -1 -3 -139 -111 -307
-239 -169 -129 -301 -237 -296 -238 6 -2 206 52 444 122 238 69 434 124 436
122 1 -2 -8 -31 -22 -65 -313 -770 92 -1650 880 -1911 181 -60 291 -75 503
-68 245 7 376 39 587 142 438 213 731 625 796 1120 15 113 7 343 -16 450 -38
183 -123 388 -219 528 -25 37 -46 69 -46 72 0 3 91 5 203 5 345 1 455 38 523
175 23 48 26 64 23 139 -4 75 -7 89 -34 128 -18 25 -52 54 -80 70 -28 15 -49
33 -48 41 2 7 25 65 52 128 l50 114 -180 3 -179 2 0 115 0 115 -370 0 c-203 0
-370 4 -370 8 0 4 27 68 61 142 88 196 90 200 76 199 -7 0 -138 -79 -292 -174z
m-1470 -849 c-77 -51 -141 -92 -143 -91 -2 2 17 44 42 94 l46 91 98 0 97 0
-140 -94z"/>
</g>
</svg>
