				<svg xmlns="http://www.w3.org/2000/svg" width="80" height="75" viewBox="0 0 1100 1050" style="clip-rule:evenodd;fill-rule:evenodd;image-rendering:optimizeQuality;shape-rendering:geometricPrecision;text-rendering:geometricPrecision;version:1">
					<path class="fil0 str0" d="M572 257c203 0 368 166 368 369 0 204-165 370-368 370-202 0-367-166-367-370 0-203 165-369 367-369z"/><path class="fil0 str1" d="M572 257c203 0 368 166 368 369 0 204-165 369-368 369-202 0-367-165-367-369 0-203 165-369 367-369z"/><path class="fil1" d="M572 272c195 0 354 159 354 354 0 196-159 355-354 355-194 0-353-159-353-355 0-195 159-354 353-354zm0 104c138 0 250 112 250 250 0 139-112 251-250 251-137 0-249-112-249-251 0-138 112-250 249-250z"/><path class="fil1 str2" d="M661 424c-9-7-23-12-41-16-18-3-35-5-51-5-10 0-21 6-31 17-11 12-16 21-16 28 0 3 5 10 14 19 5 5 10 11 14 17 12 14 20 22 25 22 2 0 12-1 30-3 23-1 38-2 45-3 5-5 12-14 20-27 8-13 12-21 12-24 0-8-7-16-21-25zm-222 65l-13-22-7 2c-15 11-31 31-45 61-15 31-22 58-22 81 0 4 1 11 2 22l7 1c4-4 13-14 26-30 10-12 15-18 16-18 8-41 20-74 36-97zm71-33c-9 0-21 5-38 15-17 11-27 20-30 27-5 10-11 24-18 42-6 17-9 28-9 33 0 8 7 19 22 34 14 14 24 22 27 22 3 0 6-2 12-5 2-1 4-2 5-3 37-19 56-29 58-31 8-26 14-44 17-52 4-8 5-14 5-18 0-7-2-14-7-20 0 0-1-1-1-2-23-28-37-42-43-42zm266 89c-10-27-22-48-38-65-15-17-31-26-45-26-2 0-8 8-19 25-11 16-16 26-16 29 0 5 3 18 11 40 5 15 9 25 10 30 3 12 6 18 10 19 40 25 62 37 66 37 4 0 10-7 18-21 9-15 13-24 13-28 0-5-3-19-10-40zm-384 210l1-16c-21-39-32-71-33-97l-6-1c-1 5-1 9-1 12 0 7 1 16 4 28 3 11 5 19 7 23 3 9 12 26 28 51zm214-105c0-3-9-12-28-25-18-14-31-21-37-21-10 0-33 11-70 33-3 2-5 3-6 4-3 1-5 6-7 15-2 9-3 17-3 22-1 1-1 2-1 5-2 10-3 18-3 22 0 6 2 11 5 15 4 4 8 8 12 12 4 3 8 7 13 11 8 6 16 12 24 16 7 5 15 7 22 7 7 0 15-2 26-5 20-9 32-16 36-21 4-5 7-19 11-41 4-30 6-46 6-49zm146-2c0-3-11-11-33-24-22-13-35-20-40-20-4 0-16 7-35 20-19 14-29 23-29 27-1 4-2 10-4 20-5 30-8 53-10 67 7 7 18 14 33 22 16 7 27 11 33 11 3 0 15-7 35-21 20-15 33-26 41-34 2-3 4-14 6-31 2-18 3-30 3-37zm-78 128c-4 1-10 8-19 19-9 11-17 21-23 31 1 2 3 4 4 5 2 2 4 3 8 3 7 0 15-3 23-7 8-4 16-8 24-13 8-5 15-10 22-16 30-23 48-48 55-73-4-2-10-2-16-2-1 0-10 6-26 18-26 19-43 30-52 35zm-235-52c-3 1-8 2-14 4-13 4-21 7-25 9-1 1-1 2-1 4 0 2 1 6 1 11 0 5 0 8 0 9 3 9 11 19 22 30 12 11 26 20 40 28 17 10 32 16 43 16 8 0 17-3 27-8 0-8-3-20-7-34-1-5-3-9-3-12-1-2-4-4-10-7-5-3-13-8-25-18-12-9-20-15-24-19-9-9-16-13-21-13-1 0-2 0-3 0zm189 117c-19-5-35-8-50-8-12 0-24 1-35 3-11 1-18 3-23 5 11 5 29 8 53 8 20 0 38-3 55-8zm-57-446c42 0 81 10 116 31 35 21 63 50 83 88 21 37 31 77 31 119 0 40-10 78-31 112-20 35-48 62-83 82-35 20-73 30-114 30-40 0-78-10-113-31-36-21-65-49-86-84-21-35-32-72-32-111 0-43 10-83 30-120 20-36 48-65 82-85 35-21 74-31 117-31z"/><path class="fil0" d="M146 397l4 1 2 0-170 131 551-160 96 66 26-45 174-62-17 36 22 22 42 0 32 0 82 0 5 0c30-3 60-12 76-40 11-18 14-37 8-58-5-18-18-35-45-43l29-69-94 0 0-62-203 0 43-97-156 97-521 1-6 60c-49 16-84 47-85 109 1 69 54 101 105 113z"/><polygon class="fil0" points="577 445 531 450 525 543 518 540 486 608 479 623 471 639 466 648 517 664 525 663 634 714 657 714 658 712 685 710 740 612 734 580 734 580 727 555 722 551 721 548 720 550 636 490 632 489 595 416 "/><path class="fil1" d="M74 176l12 0 0-12 2 0c19 0 23-21 23-35 0-13-4-35-23-35l-2 0 0-12-12 0 0 12-2 0c-18 0-23 22-23 35 0 14 5 35 23 35l2 0 0 12zm1-29l0 0c-11 0-14-9-14-18 0-19 11-18 14-18l0 0 0 36zm10 0l0-36 1 0c2 0 13-1 13 18 0 13-5 18-13 18l-1 0zm51-18l-11-42-13 0 18 62c-1 4-2 8-6 8-2 0-4 0-5-1l0 17c2 1 4 1 7 1 6 0 11-1 15-19l16-68-12 0-9 42zm36-25l0 69 12 0 0-69 15 0 0-17-42 0 0 17 15 0zm44 0l27 0 0-17-38 0 0 86 23 0c12 0 19-9 19-26 0-28-15-28-19-28l-12 0 0-15zm0 31l10 0c3 0 8 1 8 11 0 8-4 10-8 10l-10 0 0-21zm62 40c17 0 24-19 24-45 0-26-7-45-24-45-20 0-25 25-25 45 0 20 5 45 25 45zm0-17c-7 0-13-6-13-28 0-20 5-29 13-29 12 0 12 21 12 29 0 7-1 28-12 28zm29 15c20 5 22-23 22-39l0-30 14 0 0 69 12 0 0-86-37 0 0 41c0 14-1 30-11 28l0 17zm70-86l-12 0 0 86 24 0c12 0 18-8 18-27 0-13-3-28-18-28l-12 0 0-31zm0 48l10 0c4 0 7 3 7 10 0 8-2 11-7 11l-10 0 0-21zm49 1l18 0 0 37 12 0 0-86-12 0 0 32-18 0 0-32-11 0 0 86 11 0 0-37zm52-49l-11 0 0 86 23 0c12 0 18-8 18-27 0-13-3-28-18-28l-12 0 0-31zm0 48l10 0c4 0 7 2 7 10 0 8-2 11-7 11l-10 0 0-21zm34-48l0 86 11 0 0-86-11 0zm34 55l0-55-12 0 0 86 12 0 19-56 0 56 12 0 0-86-12 0-19 55zm-5-76c1 15 11 17 14 17 3 0 14-1 14-17l-8 0c0 4-1 8-6 8-4 0-6-4-6-8l-8 0z"/><path class="fil1" d="M798 123l0 0 0-37-15 0 0 88 15 0 0-43 0 0 23 43 19 0-28-48 26-40-18 0-22 37zm42 51c27 6 29-23 29-40l1-31 18 0 0 71 15 0 0-88-48 0 0 42c0 15-1 32-15 29l0 17zm103-45l-14-43-18 0 24 64c-1 4-3 8-8 8-3 0-5 0-7-1l0 17c4 2 6 2 10 2 7 0 14-1 20-20l21-70-17 0-11 43zm49-26l35 0 0-17-50 0 0 88 31 0c15 0 24-8 24-26 0-29-19-29-24-29l-16 0 0-16zm0 33l13 0c4 0 11 1 11 11 0 9-5 10-11 10l-13 0 0-21z"/><polygon class="fil3" points="473 646 594 450 614 488 521 647 "/><polygon class="fil3" points="529 652 636 702 646 699 716 577 714 565 619 501 "/><path class="fil4" d="M542 454l35 2-1 11-35-2-5-6 6-5zm-1 11c-3 0-6-3-5-6 0-3 2-6 6-5l-1 11zm-11 65l6-71 11 1-6 71-9 4-2-5zm11 1c0 3-3 5-6 5-3 0-6-3-5-6l11 1zm72 53l-81-49 6-9 80 48-5 10 0 0zm5-10c3 2 4 5 2 8-1 3-5 3-7 2l5-10zm-23 42l-9-8 8 0 2 2 3 1 2 1 2 1 2 1 2 1 2 0 2 0 2 0 2-1 2 0 2-1 2-1 1-1 2-1 1-1 1-1 1-1 0-1 1-2 0-1 0-1 0-2 0-1-1-2-1-2-1-1-1-2-2-2-3-2-3-2-3-2 5-10 4 2 4 3 3 2 3 3 2 3 2 3 2 2 1 3 0 3 1 4-1 2 0 3-1 3-2 3-1 2-2 2-2 2-2 2-3 1-2 2-3 1-3 0-3 1-3 0-3 0-4 0-3-1-3-1-3-1-3-2-3-2-3-3 8 0zm-8 0c-3-2-3-6-1-8 2-2 6-2 8 0l-7 8zm-14 6l-6 9 0-9 1 0 1-1 0 0 1-1 1 0 0 0 1-1 0 0 1 0 1-1 0 0 1 0 0-1 1 0 1 0 0-1 1 0 0 0 1-1 0 0 1-1 1 0 0-1 1 0 0-1 1 0 0-1 1 0 0-1 1 0 1-1 0-1 9 8-1 0-1 1 0 1-1 1-1 1 0 0-1 1-1 1-1 0 0 1-1 0-1 1-1 0 0 1-1 0-1 1 0 0-1 1-1 0-1 1 0 0-1 0-1 1 0 0-1 0 0 1-1 0-1 0 0 1-1 0 0 0-1 1 0-10zm0 10c-3 1-6 0-8-2-1-3 0-7 2-8l6 10zm48 12l6 10-4 0-2 0-2-1-2 0-1 0-2-1-2 0-2-1-2 0-1-1-2 0-2-1-2-1-1 0-2-1-2-1-2 0-1-1-2-1-2 0-2-1-1-1-2-1-2-1-2-1-1 0-2-1-2-1-1-1-2-1-2-1-1-1-2-2 6-9 2 1 1 1 2 1 1 1 2 1 2 1 1 1 2 0 1 1 2 1 1 1 2 0 2 1 1 1 2 1 1 0 2 1 2 0 1 1 2 1 2 0 1 1 2 0 2 1 1 0 2 1 2 0 1 1 2 0 2 0 1 1 2 0-4 1zm4-1c3 1 5 4 5 7-1 3-4 5-7 4l2-11zm40-53l6-9 3 5-1 3 0 2-1 3-1 3 0 2-1 3-1 2-1 3-1 2-1 2-1 3-1 2-1 2-2 2-1 3-2 2-1 2-2 2-1 2-2 2-2 2-2 2-2 2-2 1-2 2-2 2-2 2-2 1-2 2-2 1-3 2-2 2-6-10 2-2 2-1 2-1 2-2 2-1 2-2 2-1 2-2 2-2 1-1 2-2 1-2 2-1 1-2 2-2 1-2 1-2 2-2 1-1 1-2 1-2 1-2 1-3 1-2 0-2 1-2 1-2 1-2 0-3 1-2 0-2 0-3 3 6zm-3-6c1-3 4-5 7-4 3 0 5 3 5 6l-12-2zm-88-72l97 69-6 9-98-69-2-5 9-4zm-7 9c-2-2-3-6-1-8 2-3 5-3 8-1l-7 9zm15-59l-6 55-11-1 6-55 6-5 5 6zm-11-1c0-3 3-5 6-5 3 0 6 3 5 6l-11-1z"/><path class="fil3" d="M577 462l-36-3-6 72 80 48c43 22 2 58-25 33-6 8-14 11-20 15 17 11 35 18 54 22 25-15 40-37 44-64l-98-69 7-54z"/><polygon class="fil3 str3" points="657 695 719 588 728 614 681 693 "/><path class="fil3 str4" d="M614 584c9 0 16 7 16 16 0 10-7 17-16 17-9 0-17-7-17-17 0-9 8-16 17-16z"/><path class="fil1" d="M169 375l16-40c-20-1-43-6-52-20-11-16-4-41 7-55 12-14 36-15 58-16l19-40c-60-4-128 14-135 82-6 52 33 85 87 89zm134-131l63 0-60-41-69 0-18 41 36 0-58 128 45 1 61-129zm27-41l239 0 211-133-62 133 210 0-252 86-56 119-89-63-513 171 420-239-108-74zm131 40l112 0 111-65-32 65 58 1-67 19-37 79-64-43-174 64 145-83-52-37zm204 129l30-64 282-106-82 170-52 0 34-81-212 81zm309-32l23-47c19 0 36 4 28 27-11 21-26 20-51 20zm8 33l-65 0 80-170 42 0-27 60c12 0 30 4 40 13 12 10 15 27 12 42-7 36-46 55-82 55z"/><path class="fil3" d="M157 364l17-40c-21-2-43-7-52-20-12-16-4-42 7-55 12-15 36-15 58-16l19-41c-60-3-128 15-135 83-6 51 32 84 86 89zm134-131l63 0-59-41-69 0-18 41 36 0-59 128 45 0 61-128zm27-41l239 0 211-133-62 133 211 0-253 86-53 114-87-61-511 179 414-244-109-74zm131 40l113 0 111-65-32 65 58 0-67 19-37 79-65-43-173 65 145-84-53-36zm205 129l30-65 281-105-81 170-52 0 33-81-211 81zm309-32l23-47c19 0 35 3 27 26-10 21-25 20-50 21zm8 32l-66 0 81-169 42 0-28 59c12 1 31 5 41 13 12 11 15 28 12 43-7 36-46 54-82 54z"/><path class="fil4" d="M234 666l7 29 11 0 4 18-10 6 7 29 65-42-8-31-76-9zm55 30l-17 9-2-10 19 1zm60 81l-28 24c-6 5-12 10-18 3-1-1-2-3-3-4l-15 13c1 3 3 6 6 9 19 22 32 13 39 6l20-18 8 9-39 34 19 22 55-48-44-50zm94 165l27 12 30-66-26-12-11 24c-2-1-5-2-6-2-5-2-2-9 0-12l7-15-27-13-10 22c-5 11-9 23 14 34 4 2 6 3 13 5l-11 23zm109 26l55-2-1-21-26 1 0-7 23-1 0-17-23 1-1-7 26 0-1-21-54 1 2 73zm104-85l30 66 39-18c18-9 17-22 14-29-4-9-13-13-23-10l0 0c5-4 9-12 5-19-2-6-9-16-28-7l-37 17zm38 13l-5-10 3-1c4-2 7 0 8 2 1 2 1 5-4 8l-2 1zm11 25l-4-10 3-2c2-1 7-2 9 2 2 5-2 7-5 8l-3 2zm123-113c1 5-1 11-5 16-5 6-13 10-22 3-5-5-10-13-1-23 3-4 9-7 16-7l-19-17c-7 2-13 7-17 12-12 14-17 38 3 55 17 16 40 13 55-5 6-7 8-13 10-18l-20-16zm61-55l8-28-27-8 31-7 9-32-43 14-27-33-8 30 20 23-25-7-8 28 70 20z"/>
				</svg>